<!-- Generated by readme-aura https://github.com/collectioneur/readme-aura -->
<svg width="760" height="120" viewBox="0 0 760 120" xmlns="http://www.w3.org/2000/svg"><mask id="satori_om-id"><rect x="0" y="0" width="760" height="120" fill="#fff"/></mask><mask id="satori_om-id-0"><rect x="0" y="0" width="760" height="42" fill="#fff"/></mask><mask id="satori_om-id-0-0"><rect x="0" y="0" width="226" height="42" fill="#fff"/></mask><mask id="satori_om-id-0-0-0"><rect x="4" y="4" width="226" height="42" fill="#fff"/></mask><path x="4" y="4" width="226" height="42" fill="#000000" d="M10,4 h214 a6,6 0 0 1 6,6 v30 a6,6 0 0 1 -6,6 h-214 a6,6 0 0 1 -6,-6 v-30 a6,6 0 0 1 6,-6"/><defs><clipPath id="satori_bc-id-0-0-1"><path x="0" y="0" width="226" height="42" d="M6,0 h214 a6,6 0 0 1 6,6 v30 a6,6 0 0 1 -6,6 h-214 a6,6 0 0 1 -6,-6 v-30 a6,6 0 0 1 6,-6"/></clipPath></defs><mask id="satori_om-id-0-0-1"><rect x="2.5" y="2.5" width="221" height="37" fill="#fff"/><path width="226" height="42" fill="none" stroke="#000" stroke-width="5" d="M1.7569999999999997,1.7569999999999997 A6,6 0 0 1 6,0 h214 a6,6 0 0 1 6,6 v30 a6,6 0 0 1 -6,6 h-214 a6,6 0 0 1 -6,-6 v-30 A6,6 0 0 1 1.7569999999999997,1.7569999999999997"/></mask><path x="0" y="0" width="226" height="42" fill="#FF6B6B" d="M6,0 h214 a6,6 0 0 1 6,6 v30 a6,6 0 0 1 -6,6 h-214 a6,6 0 0 1 -6,-6 v-30 a6,6 0 0 1 6,-6"/><path width="226" height="42" clip-path="url(#satori_bc-id-0-0-1)" fill="none" stroke="#000000" stroke-width="5" d="M1.7569999999999997,1.7569999999999997 A6,6 0 0 1 6,0 h214 a6,6 0 0 1 6,6 v30 a6,6 0 0 1 -6,6 h-214 a6,6 0 0 1 -6,-6 v-30 A6,6 0 0 1 1.7569999999999997,1.7569999999999997"/><clipPath id="satori_cp-id-0-0-1-0"><rect x="18" y="11" width="20" height="20"/></clipPath><mask id="satori_om-id-0-0-1-0"><rect x="18" y="11" width="20" height="20" fill="#fff"/></mask><svg x="18" y="11" width="20" height="20" preserveAspectRatio="none" clip-path="url(#satori_cp-id-0-0-1-0)" mask="url(#satori_om-id-0-0-1-0)"><path d="M1.5 1.5l1.3 12.3 5.7 1.6 5.7-1.6 1.3-12.3H1.5zm9.6 4.3l-.2 1.6H5.6l.1.8h4.7l-.3 3.3-3.2.9-3.2-.9-.2-2h1.4l.1 1 1.8.5 1.8-.5.2-1.6H3.6l-.4-3.7h7.5z" fill="#000000"></path></svg><mask id="satori_om-id-0-0-1-0-0"><rect x="18" y="11" width="0" height="20" fill="#fff"/></mask><mask id="satori_om-id-0-0-1-1"><rect x="46" y="13" width="46" height="16" fill="#fff"/></mask><g  ><path fill="#000000" d="M48.8 26L46.9 26L46.9 16.5L48.8 16.5L48.8 20.4L52.9 20.4L52.9 16.5L54.9 16.5L54.9 26L52.9 26L52.9 22.0L48.8 22.0L48.8 26ZM59.1 18.1L56.2 18.1L56.2 16.5L63.9 16.5L63.9 18.1L61.0 18.1L61.0 26L59.1 26L59.1 18.1ZM67.2 26L65.2 26L65.2 16.5L68.2 16.5L69.8 20.9Q69.8 21.2 70.0 21.7Q70.1 22.2 70.2 22.7L70.2 22.7Q70.3 23.3 70.5 23.8L70.5 23.8Q70.6 23.3 70.7 22.7L70.7 22.7Q70.8 22.2 70.9 21.7Q71.1 21.2 71.2 20.9L71.2 20.9L72.7 16.5L75.6 16.5L75.6 26L73.7 26L73.7 21.5Q73.7 21.2 73.7 20.8Q73.7 20.3 73.7 19.8Q73.8 19.2 73.8 18.7L73.8 18.7Q73.8 18.4 73.8 18.2L73.8 18.2Q73.7 18.5 73.6 18.8L73.6 18.8Q73.5 19.3 73.3 19.8Q73.2 20.4 73.1 20.8Q72.9 21.3 72.8 21.5L72.8 21.5L71.3 26L69.6 26L68.0 21.5Q67.9 21.3 67.8 20.8Q67.7 20.4 67.5 19.9Q67.4 19.3 67.2 18.8L67.2 18.8Q67.2 18.5 67.1 18.3L67.1 18.3Q67.1 18.5 67.1 18.7L67.1 18.7Q67.1 19.2 67.1 19.7Q67.2 20.3 67.2 20.8Q67.2 21.2 67.2 21.5L67.2 21.5L67.2 26ZM83.4 26L77.4 26L77.4 16.5L79.3 16.5L79.3 24.4L83.4 24.4L83.4 26ZM87.8 26.1L87.8 26.1Q86.9 26.1 86.1 25.8Q85.3 25.4 84.9 24.8Q84.5 24.2 84.4 23.3L84.4 23.3L86.3 23.3Q86.4 23.7 86.6 24.0Q86.8 24.3 87.1 24.4Q87.4 24.6 87.8 24.6L87.8 24.6Q88.3 24.6 88.7 24.4Q89.0 24.2 89.3 23.8Q89.5 23.4 89.5 22.9L89.5 22.9Q89.5 22.4 89.2 22.0Q89.0 21.6 88.7 21.4Q88.3 21.2 87.8 21.2L87.8 21.2Q87.4 21.2 87.0 21.4Q86.6 21.5 86.4 21.8L86.4 21.8L84.6 21.5L85.1 16.5L90.8 16.5L90.8 18.1L86.7 18.1L86.5 20.5L86.5 20.5Q86.8 20.2 87.3 20.0Q87.8 19.7 88.4 19.7L88.4 19.7Q89.0 19.7 89.6 20.0Q90.1 20.2 90.5 20.6Q90.9 21.0 91.1 21.6Q91.3 22.2 91.3 22.9L91.3 22.9Q91.3 23.8 90.9 24.5Q90.5 25.3 89.7 25.7Q88.9 26.1 87.8 26.1Z "/></g><mask id="satori_om-id-0-1"><rect x="246" y="0" width="226" height="42" fill="#fff"/></mask><mask id="satori_om-id-0-1-0"><rect x="250" y="4" width="226" height="42" fill="#fff"/></mask><path x="250" y="4" width="226" height="42" fill="#000000" d="M256,4 h214 a6,6 0 0 1 6,6 v30 a6,6 0 0 1 -6,6 h-214 a6,6 0 0 1 -6,-6 v-30 a6,6 0 0 1 6,-6"/><defs><clipPath id="satori_bc-id-0-1-1"><path x="246" y="0" width="226" height="42" d="M252,0 h214 a6,6 0 0 1 6,6 v30 a6,6 0 0 1 -6,6 h-214 a6,6 0 0 1 -6,-6 v-30 a6,6 0 0 1 6,-6"/></clipPath></defs><mask id="satori_om-id-0-1-1"><rect x="248.5" y="2.5" width="221" height="37" fill="#fff"/><path width="226" height="42" fill="none" stroke="#000" stroke-width="5" d="M247.757,1.7569999999999997 A6,6 0 0 1 252,0 h214 a6,6 0 0 1 6,6 v30 a6,6 0 0 1 -6,6 h-214 a6,6 0 0 1 -6,-6 v-30 A6,6 0 0 1 247.757,1.7569999999999997"/></mask><path x="246" y="0" width="226" height="42" fill="#4D96FF" d="M252,0 h214 a6,6 0 0 1 6,6 v30 a6,6 0 0 1 -6,6 h-214 a6,6 0 0 1 -6,-6 v-30 a6,6 0 0 1 6,-6"/><path width="226" height="42" clip-path="url(#satori_bc-id-0-1-1)" fill="none" stroke="#000000" stroke-width="5" d="M247.757,1.7569999999999997 A6,6 0 0 1 252,0 h214 a6,6 0 0 1 6,6 v30 a6,6 0 0 1 -6,6 h-214 a6,6 0 0 1 -6,-6 v-30 A6,6 0 0 1 247.757,1.7569999999999997"/><clipPath id="satori_cp-id-0-1-1-0"><rect x="264" y="11" width="20" height="20"/></clipPath><mask id="satori_om-id-0-1-1-0"><rect x="264" y="11" width="20" height="20" fill="#fff"/></mask><svg x="264" y="11" width="20" height="20" preserveAspectRatio="none" clip-path="url(#satori_cp-id-0-1-1-0)" mask="url(#satori_om-id-0-1-1-0)"><path d="M1.5 1.5l1.3 12.3 5.7 1.6 5.7-1.6 1.3-12.3H1.5zm9.6 4.3l-.2 1.6H5.6l.1.8h4.7l-.3 3.3-3.2.9-3.2-.9-.2-2h1.4l.1 1 1.8.5 1.8-.5.2-1.6H3.6l-.4-3.7h7.5z" fill="#000000"></path></svg><mask id="satori_om-id-0-1-1-0-0"><rect x="264" y="11" width="0" height="20" fill="#fff"/></mask><mask id="satori_om-id-0-1-1-1"><rect x="292" y="13" width="36" height="16" fill="#fff"/></mask><g  ><path fill="#000000" d="M297.0 26.1L297.0 26.1Q295.7 26.1 294.7 25.6Q293.7 25.0 293.2 23.9Q292.6 22.8 292.6 21.3L292.6 21.3Q292.6 19.7 293.2 18.6Q293.8 17.6 294.7 17.0Q295.7 16.4 297.0 16.4L297.0 16.4Q297.8 16.4 298.5 16.6Q299.2 16.9 299.7 17.3Q300.3 17.7 300.6 18.4Q301.0 19.0 301.1 19.8L301.1 19.8L299.1 19.8Q299.0 19.4 298.9 19.1Q298.7 18.8 298.4 18.6Q298.1 18.4 297.8 18.2Q297.4 18.1 297.0 18.1L297.0 18.1Q296.3 18.1 295.7 18.5Q295.2 18.9 294.9 19.6Q294.6 20.3 294.6 21.3L294.6 21.3Q294.6 22.3 294.9 23.0Q295.2 23.7 295.7 24.1Q296.3 24.4 297.0 24.4L297.0 24.4Q297.4 24.4 297.8 24.3Q298.1 24.2 298.4 24.0Q298.7 23.8 298.9 23.5Q299.0 23.1 299.1 22.8L299.1 22.8L301.1 22.8Q301.0 23.4 300.7 24.0Q300.4 24.6 299.8 25.1Q299.3 25.6 298.6 25.9Q297.9 26.1 297.0 26.1ZM305.9 26.1L305.9 26.1Q304.8 26.1 304.0 25.8Q303.1 25.4 302.7 24.8Q302.2 24.1 302.2 23.1L302.2 23.1L304.0 23.1Q304.1 23.5 304.3 23.9Q304.6 24.2 305.0 24.3Q305.4 24.5 305.9 24.5L305.9 24.5Q306.4 24.5 306.8 24.4Q307.2 24.2 307.4 23.9Q307.6 23.7 307.6 23.3L307.6 23.3Q307.6 23.0 307.4 22.8Q307.3 22.5 306.9 22.4Q306.5 22.2 306.0 22.1L306.0 22.1L305.0 21.8Q303.8 21.5 303.1 20.9Q302.4 20.3 302.4 19.3L302.4 19.3Q302.4 18.4 302.9 17.8Q303.3 17.1 304.1 16.8Q304.9 16.4 306.0 16.4L306.0 16.4Q307.0 16.4 307.8 16.8Q308.6 17.1 309.0 17.8Q309.4 18.4 309.5 19.2L309.5 19.2L307.6 19.2Q307.5 18.7 307.1 18.4Q306.7 18.0 305.9 18.0L305.9 18.0Q305.5 18.0 305.1 18.2Q304.8 18.3 304.6 18.6Q304.4 18.8 304.4 19.1L304.4 19.1Q304.4 19.5 304.6 19.7Q304.8 20.0 305.2 20.1Q305.5 20.2 305.9 20.3L305.9 20.3L306.8 20.5Q307.4 20.7 307.9 20.9Q308.4 21.1 308.8 21.5Q309.2 21.8 309.4 22.3Q309.6 22.7 309.6 23.3L309.6 23.3Q309.6 24.2 309.2 24.8Q308.7 25.4 307.9 25.8Q307.1 26.1 305.9 26.1ZM314.5 26.1L314.5 26.1Q313.3 26.1 312.5 25.8Q311.6 25.4 311.2 24.8Q310.7 24.1 310.7 23.1L310.7 23.1L312.6 23.1Q312.6 23.5 312.8 23.9Q313.1 24.2 313.5 24.3Q313.9 24.5 314.4 24.5L314.4 24.5Q315.0 24.5 315.3 24.4Q315.7 24.2 315.9 23.9Q316.2 23.7 316.2 23.3L316.2 23.3Q316.2 23.0 316.0 22.8Q315.8 22.5 315.4 22.4Q315.0 22.2 314.5 22.1L314.5 22.1L313.5 21.8Q312.3 21.5 311.6 20.9Q310.9 20.3 310.9 19.3L310.9 19.3Q310.9 18.4 311.4 17.8Q311.8 17.1 312.6 16.8Q313.4 16.4 314.5 16.4L314.5 16.4Q315.5 16.4 316.3 16.8Q317.1 17.1 317.5 17.8Q318.0 18.4 318.0 19.2L318.0 19.2L316.1 19.2Q316.1 18.7 315.6 18.4Q315.2 18.0 314.5 18.0L314.5 18.0Q314.0 18.0 313.6 18.2Q313.3 18.3 313.1 18.6Q312.9 18.8 312.9 19.1L312.9 19.1Q312.9 19.5 313.1 19.7Q313.3 20.0 313.7 20.1Q314.0 20.2 314.4 20.3L314.4 20.3L315.3 20.5Q315.9 20.7 316.4 20.9Q316.9 21.1 317.3 21.5Q317.7 21.8 317.9 22.3Q318.1 22.7 318.1 23.3L318.1 23.3Q318.1 24.2 317.7 24.8Q317.2 25.4 316.4 25.8Q315.6 26.1 314.5 26.1ZM322.8 26.1L322.8 26.1Q321.8 26.1 321.0 25.8Q320.2 25.4 319.7 24.8Q319.3 24.2 319.3 23.3L319.3 23.3L321.2 23.3Q321.2 23.7 321.4 24.0Q321.7 24.2 322.0 24.4Q322.4 24.5 322.8 24.5L322.8 24.5Q323.3 24.5 323.7 24.4Q324.0 24.2 324.2 23.9Q324.4 23.6 324.4 23.2L324.4 23.2Q324.4 22.8 324.2 22.5Q324.0 22.2 323.6 22.1Q323.2 21.9 322.7 21.9L322.7 21.9L321.8 21.9L321.8 20.5L322.7 20.5Q323.1 20.5 323.5 20.3Q323.8 20.1 324.0 19.9Q324.2 19.6 324.2 19.2L324.2 19.2Q324.2 18.8 324.0 18.5Q323.9 18.3 323.6 18.1Q323.3 18.0 322.8 18.0L322.8 18.0Q322.4 18.0 322.1 18.1Q321.7 18.3 321.5 18.5Q321.3 18.8 321.3 19.2L321.3 19.2L319.5 19.2Q319.5 18.4 319.9 17.7Q320.4 17.1 321.1 16.8Q321.9 16.4 322.9 16.4L322.9 16.4Q323.8 16.4 324.6 16.8Q325.3 17.1 325.7 17.7Q326.1 18.3 326.1 19.1L326.1 19.1Q326.1 19.9 325.6 20.4Q325.1 20.9 324.3 21.1L324.3 21.1L324.3 21.2Q325.0 21.2 325.5 21.5Q326.0 21.8 326.2 22.3Q326.4 22.8 326.4 23.4L326.4 23.4Q326.4 24.2 326.0 24.8Q325.5 25.4 324.7 25.8Q323.9 26.1 322.8 26.1Z "/></g><mask id="satori_om-id-0-2"><rect x="492" y="0" width="226" height="42" fill="#fff"/></mask><mask id="satori_om-id-0-2-0"><rect x="496" y="4" width="226" height="42" fill="#fff"/></mask><path x="496" y="4" width="226" height="42" fill="#000000" d="M502,4 h214 a6,6 0 0 1 6,6 v30 a6,6 0 0 1 -6,6 h-214 a6,6 0 0 1 -6,-6 v-30 a6,6 0 0 1 6,-6"/><defs><clipPath id="satori_bc-id-0-2-1"><path x="492" y="0" width="226" height="42" d="M498,0 h214 a6,6 0 0 1 6,6 v30 a6,6 0 0 1 -6,6 h-214 a6,6 0 0 1 -6,-6 v-30 a6,6 0 0 1 6,-6"/></clipPath></defs><mask id="satori_om-id-0-2-1"><rect x="494.5" y="2.5" width="221" height="37" fill="#fff"/><path width="226" height="42" fill="none" stroke="#000" stroke-width="5" d="M493.757,1.7569999999999997 A6,6 0 0 1 498,0 h214 a6,6 0 0 1 6,6 v30 a6,6 0 0 1 -6,6 h-214 a6,6 0 0 1 -6,-6 v-30 A6,6 0 0 1 493.757,1.7569999999999997"/></mask><path x="492" y="0" width="226" height="42" fill="#BC7AF9" d="M498,0 h214 a6,6 0 0 1 6,6 v30 a6,6 0 0 1 -6,6 h-214 a6,6 0 0 1 -6,-6 v-30 a6,6 0 0 1 6,-6"/><path width="226" height="42" clip-path="url(#satori_bc-id-0-2-1)" fill="none" stroke="#000000" stroke-width="5" d="M493.757,1.7569999999999997 A6,6 0 0 1 498,0 h214 a6,6 0 0 1 6,6 v30 a6,6 0 0 1 -6,6 h-214 a6,6 0 0 1 -6,-6 v-30 A6,6 0 0 1 493.757,1.7569999999999997"/><clipPath id="satori_cp-id-0-2-1-0"><rect x="510" y="11" width="20" height="20"/></clipPath><mask id="satori_om-id-0-2-1-0"><rect x="510" y="11" width="20" height="20" fill="#fff"/></mask><svg x="510" y="11" width="20" height="20" preserveAspectRatio="none" clip-path="url(#satori_cp-id-0-2-1-0)" mask="url(#satori_om-id-0-2-1-0)"><path d="M2 2h7.2c1.6 0 2.8.6 2.8 2 0 1-.6 1.6-1.6 1.8.6.3 1.2.9 1.2 1.8 0 1.6-1.2 2.4-2.8 2.4H2V2zm2.4 2v1.6H8c.6 0 1-.2 1-.8s-.4-.8-1-.8H4.4zm0 3.6V9H8.4c.6 0 1-.3 1-1s-.4-1-1-1H4.4z" fill="#000000"></path></svg><mask id="satori_om-id-0-2-1-0-0"><rect x="510" y="11" width="0" height="20" fill="#fff"/></mask><mask id="satori_om-id-0-2-1-1"><rect x="538" y="13" width="63" height="16" fill="#fff"/></mask><g  ><path fill="#000000" d="M542.8 26L538.9 26L538.9 16.5L542.6 16.5Q543.6 16.5 544.3 16.9Q545.0 17.2 545.4 17.7Q545.7 18.3 545.7 19.0L545.7 19.0Q545.7 19.5 545.5 19.9Q545.3 20.4 544.9 20.6Q544.5 20.9 544.0 21.0L544.0 21.0L544.0 21.1Q544.6 21.1 545.0 21.4Q545.5 21.7 545.8 22.2Q546.1 22.7 546.1 23.4L546.1 23.4Q546.1 24.1 545.7 24.7Q545.4 25.3 544.6 25.7Q543.9 26 542.8 26L542.8 26ZM540.8 21.8L540.8 24.4L542.5 24.4Q543.3 24.4 543.7 24.1Q544.1 23.7 544.1 23.2L544.1 23.2Q544.1 22.8 543.9 22.5Q543.7 22.2 543.4 22.0Q543.0 21.8 542.5 21.8L542.5 21.8L540.8 21.8ZM540.8 18.1L540.8 20.5L542.3 20.5Q542.7 20.5 543.1 20.4Q543.4 20.2 543.6 19.9Q543.8 19.7 543.8 19.3L543.8 19.3Q543.8 18.8 543.4 18.4Q543.0 18.1 542.4 18.1L542.4 18.1L540.8 18.1ZM550.6 26.1L550.6 26.1Q549.5 26.1 548.7 25.7Q548.0 25.2 547.5 24.4Q547.1 23.6 547.1 22.5L547.1 22.5Q547.1 21.4 547.5 20.6Q548.0 19.7 548.7 19.3Q549.5 18.8 550.6 18.8L550.6 18.8Q551.7 18.8 552.4 19.3Q553.2 19.7 553.6 20.6Q554.1 21.4 554.1 22.5L554.1 22.5Q554.1 23.6 553.6 24.4Q553.2 25.2 552.4 25.7Q551.7 26.1 550.6 26.1ZM550.6 24.6L550.6 24.6Q551.1 24.6 551.4 24.4Q551.8 24.1 552.0 23.6Q552.1 23.1 552.1 22.5L552.1 22.5Q552.1 21.8 552.0 21.4Q551.8 20.9 551.4 20.6Q551.1 20.3 550.6 20.3L550.6 20.3Q550.1 20.3 549.7 20.6Q549.4 20.9 549.2 21.4Q549.1 21.8 549.1 22.5L549.1 22.5Q549.1 23.1 549.2 23.6Q549.4 24.1 549.7 24.4Q550.1 24.6 550.6 24.6ZM558.6 26.1L558.6 26.1Q557.5 26.1 556.7 25.7Q555.9 25.2 555.5 24.4Q555.1 23.6 555.1 22.5L555.1 22.5Q555.1 21.4 555.5 20.6Q555.9 19.7 556.7 19.3Q557.5 18.8 558.6 18.8L558.6 18.8Q559.6 18.8 560.4 19.3Q561.2 19.7 561.6 20.6Q562.0 21.4 562.0 22.5L562.0 22.5Q562.0 23.6 561.6 24.4Q561.2 25.2 560.4 25.7Q559.6 26.1 558.6 26.1ZM558.6 24.6L558.6 24.6Q559.1 24.6 559.4 24.4Q559.8 24.1 559.9 23.6Q560.1 23.1 560.1 22.5L560.1 22.5Q560.1 21.8 559.9 21.4Q559.8 20.9 559.4 20.6Q559.1 20.3 558.6 20.3L558.6 20.3Q558.1 20.3 557.7 20.6Q557.4 20.9 557.2 21.4Q557.0 21.8 557.0 22.5L557.0 22.5Q557.0 23.1 557.2 23.6Q557.4 24.1 557.7 24.4Q558.1 24.6 558.6 24.6ZM565.6 18.9L566.9 18.9L566.9 20.4L565.6 20.4L565.6 23.9Q565.6 24.3 565.7 24.4Q565.9 24.6 566.2 24.6L566.2 24.6Q566.3 24.6 566.5 24.6Q566.7 24.5 566.8 24.5L566.8 24.5L567.1 25.9Q566.8 26.0 566.4 26.1Q566.1 26.1 565.8 26.1L565.8 26.1Q564.8 26.1 564.2 25.6Q563.7 25.1 563.7 24.1L563.7 24.1L563.7 20.4L562.7 20.4L562.7 18.9L563.7 18.9L563.7 17.2L565.6 17.2L565.6 18.9ZM570.9 26.1L570.9 26.1Q570.1 26.1 569.4 25.9Q568.8 25.7 568.3 25.2Q567.9 24.7 567.8 24.1L567.8 24.1L569.6 23.8Q569.7 24.2 570.1 24.5Q570.4 24.7 571.0 24.7L571.0 24.7Q571.5 24.7 571.9 24.5Q572.2 24.3 572.2 24.0L572.2 24.0Q572.2 23.7 571.9 23.6Q571.7 23.4 571.3 23.3L571.3 23.3L570.0 23.0Q569.0 22.8 568.5 22.3Q568.0 21.8 568.0 21.0L568.0 21.0Q568.0 20.3 568.4 19.8Q568.7 19.3 569.4 19.1Q570.1 18.8 571.0 18.8L571.0 18.8Q571.8 18.8 572.4 19.0Q573.0 19.3 573.4 19.7Q573.8 20.1 573.9 20.7L573.9 20.7L572.2 21.0Q572.1 20.6 571.8 20.4Q571.5 20.2 571.0 20.2L571.0 20.2Q570.5 20.2 570.2 20.4Q569.9 20.6 569.9 20.9L569.9 20.9Q569.9 21.2 570.1 21.4Q570.3 21.5 570.8 21.6L570.8 21.6L572.1 21.9Q573.1 22.1 573.6 22.6Q574.1 23.0 574.1 23.8L574.1 23.8Q574.1 24.5 573.7 25.0Q573.3 25.6 572.6 25.8Q571.9 26.1 570.9 26.1ZM577.6 18.9L578.9 18.9L578.9 20.4L577.6 20.4L577.6 23.9Q577.6 24.3 577.7 24.4Q577.9 24.6 578.2 24.6L578.2 24.6Q578.4 24.6 578.5 24.6Q578.7 24.5 578.8 24.5L578.8 24.5L579.1 25.9Q578.8 26.0 578.5 26.1Q578.2 26.1 577.9 26.1L577.9 26.1Q576.8 26.1 576.3 25.6Q575.7 25.1 575.7 24.1L575.7 24.1L575.7 20.4L574.7 20.4L574.7 18.9L575.7 18.9L575.7 17.2L577.6 17.2L577.6 18.9ZM582.1 26L580.2 26L580.2 18.9L582.0 18.9L582.0 20.1L582.1 20.1Q582.3 19.5 582.7 19.1Q583.2 18.8 583.8 18.8L583.8 18.8Q583.9 18.8 584.1 18.8Q584.3 18.8 584.4 18.9L584.4 18.9L584.4 20.6Q584.3 20.5 584.0 20.5Q583.8 20.5 583.6 20.5L583.6 20.5Q583.2 20.5 582.8 20.7Q582.5 20.9 582.3 21.2Q582.1 21.5 582.1 22.0L582.1 22.0L582.1 26ZM587.4 26.1L587.4 26.1Q586.8 26.1 586.2 25.9Q585.7 25.7 585.4 25.2Q585.1 24.7 585.1 24.0L585.1 24.0Q585.1 23.4 585.3 23.0Q585.5 22.6 585.9 22.4Q586.3 22.1 586.7 22.0Q587.2 21.9 587.8 21.8L587.8 21.8Q588.4 21.8 588.7 21.7Q589.1 21.7 589.3 21.5Q589.5 21.4 589.5 21.2L589.5 21.2L589.5 21.2Q589.5 20.9 589.3 20.7Q589.2 20.4 589.0 20.3Q588.7 20.2 588.4 20.2L588.4 20.2Q588.0 20.2 587.7 20.3Q587.4 20.4 587.3 20.6Q587.1 20.8 587.0 21.0L587.0 21.0L585.3 20.8Q585.5 20.1 585.9 19.7Q586.3 19.3 586.9 19.0Q587.6 18.8 588.4 18.8L588.4 18.8Q588.9 18.8 589.5 19.0Q590.0 19.1 590.4 19.4Q590.9 19.7 591.1 20.1Q591.4 20.6 591.4 21.2L591.4 21.2L591.4 26L589.6 26L589.6 25.0L589.5 25.0Q589.3 25.3 589.1 25.6Q588.8 25.8 588.4 26.0Q588.0 26.1 587.4 26.1ZM588.0 24.8L588.0 24.8Q588.4 24.8 588.8 24.6Q589.1 24.4 589.3 24.1Q589.5 23.8 589.5 23.5L589.5 23.5L589.5 22.7Q589.4 22.8 589.2 22.8Q589.1 22.9 588.9 22.9Q588.6 22.9 588.4 23.0Q588.2 23.0 588.1 23.0L588.1 23.0Q587.7 23.1 587.5 23.2Q587.2 23.3 587.0 23.5Q586.9 23.7 586.9 24.0L586.9 24.0Q586.9 24.2 587.0 24.4Q587.2 24.6 587.4 24.7Q587.7 24.8 588.0 24.8ZM594.9 28.7L593.0 28.7L593.0 18.9L594.9 18.9L594.9 20.1L595.0 20.1Q595.1 19.8 595.3 19.5Q595.6 19.2 596.0 19.0Q596.4 18.8 597.0 18.8L597.0 18.8Q597.8 18.8 598.4 19.2Q599.1 19.6 599.5 20.4Q599.9 21.3 599.9 22.5L599.9 22.5Q599.9 23.6 599.5 24.5Q599.1 25.3 598.4 25.7Q597.8 26.1 597.0 26.1L597.0 26.1Q596.4 26.1 596.0 25.9Q595.6 25.7 595.3 25.4Q595.1 25.1 595.0 24.9L595.0 24.9L594.9 24.9L594.9 28.7ZM596.4 24.6L596.4 24.6Q596.9 24.6 597.2 24.3Q597.6 24.0 597.7 23.6Q597.9 23.1 597.9 22.5L597.9 22.5Q597.9 21.8 597.7 21.4Q597.6 20.9 597.2 20.6Q596.9 20.3 596.4 20.3L596.4 20.3Q595.9 20.3 595.6 20.6Q595.2 20.9 595.0 21.3Q594.9 21.8 594.9 22.5L594.9 22.5Q594.9 23.1 595.0 23.6Q595.2 24.1 595.6 24.3Q595.9 24.6 596.4 24.6Z "/></g><mask id="satori_om-id-1"><rect x="0" y="54" width="760" height="42" fill="#fff"/></mask><mask id="satori_om-id-1-0"><rect x="0" y="54" width="226" height="42" fill="#fff"/></mask><mask id="satori_om-id-1-0-0"><rect x="4" y="58" width="226" height="42" fill="#fff"/></mask><path x="4" y="58" width="226" height="42" fill="#000000" d="M10,58 h214 a6,6 0 0 1 6,6 v30 a6,6 0 0 1 -6,6 h-214 a6,6 0 0 1 -6,-6 v-30 a6,6 0 0 1 6,-6"/><defs><clipPath id="satori_bc-id-1-0-1"><path x="0" y="54" width="226" height="42" d="M6,54 h214 a6,6 0 0 1 6,6 v30 a6,6 0 0 1 -6,6 h-214 a6,6 0 0 1 -6,-6 v-30 a6,6 0 0 1 6,-6"/></clipPath></defs><mask id="satori_om-id-1-0-1"><rect x="2.5" y="56.5" width="221" height="37" fill="#fff"/><path width="226" height="42" fill="none" stroke="#000" stroke-width="5" d="M1.7569999999999997,55.757 A6,6 0 0 1 6,54 h214 a6,6 0 0 1 6,6 v30 a6,6 0 0 1 -6,6 h-214 a6,6 0 0 1 -6,-6 v-30 A6,6 0 0 1 1.7569999999999997,55.757"/></mask><path x="0" y="54" width="226" height="42" fill="#8F43EE" d="M6,54 h214 a6,6 0 0 1 6,6 v30 a6,6 0 0 1 -6,6 h-214 a6,6 0 0 1 -6,-6 v-30 a6,6 0 0 1 6,-6"/><path width="226" height="42" clip-path="url(#satori_bc-id-1-0-1)" fill="none" stroke="#000000" stroke-width="5" d="M1.7569999999999997,55.757 A6,6 0 0 1 6,54 h214 a6,6 0 0 1 6,6 v30 a6,6 0 0 1 -6,6 h-214 a6,6 0 0 1 -6,-6 v-30 A6,6 0 0 1 1.7569999999999997,55.757"/><clipPath id="satori_cp-id-1-0-1-0"><rect x="18" y="65" width="20" height="20"/></clipPath><mask id="satori_om-id-1-0-1-0"><rect x="18" y="65" width="20" height="20" fill="#fff"/></mask><svg x="18" y="65" width="20" height="20" preserveAspectRatio="none" clip-path="url(#satori_cp-id-1-0-1-0)" mask="url(#satori_om-id-1-0-1-0)"><path d="M4 11l-1 4H1l2.5-10H6l-.8 3h1.8L7.8 5h2.5L7.8 15h-2.5l1.2-5H4.2zm6 1c0-2 1.5-3.5 3.5-3.5S17 10 17 12s-1.5 3.5-3.5 3.5-3.5-1.5-3.5-3.5zm2.2 0c0 .8.5 1.3 1.3 1.3s1.3-.5 1.3-1.3-.5-1.3-1.3-1.3-1.3.5-1.3 1.3zm6.3-4.5H21L20.2 11h1.8l-.8 4H18.7l2.5-10z" fill="#000000"></path></svg><mask id="satori_om-id-1-0-1-0-0"><rect x="18" y="65" width="0" height="20" fill="#fff"/></mask><mask id="satori_om-id-1-0-1-1"><rect x="46" y="67" width="27" height="16" fill="#fff"/></mask><g  ><path fill="#000000" d="M48.8 80L46.9 80L46.9 70.5L50.5 70.5Q51.6 70.5 52.4 71.0Q53.1 71.4 53.5 72.1Q53.9 72.8 53.9 73.7L53.9 73.7Q53.9 74.7 53.5 75.4Q53.1 76.1 52.4 76.5Q51.6 76.9 50.5 76.9L50.5 76.9L48.8 76.9L48.8 80ZM48.8 72.1L48.8 75.3L50.2 75.3Q50.8 75.3 51.2 75.1Q51.6 74.9 51.7 74.6Q51.9 74.2 51.9 73.7Q51.9 73.3 51.7 72.9Q51.6 72.5 51.2 72.3Q50.8 72.1 50.2 72.1L50.2 72.1L48.8 72.1ZM57.2 80L55.3 80L55.3 70.5L57.2 70.5L57.2 74.4L61.3 74.4L61.3 70.5L63.3 70.5L63.3 80L61.3 80L61.3 76.0L57.2 76.0L57.2 80ZM66.9 80L65.0 80L65.0 70.5L68.7 70.5Q69.8 70.5 70.5 71.0Q71.3 71.4 71.7 72.1Q72.1 72.8 72.1 73.7L72.1 73.7Q72.1 74.7 71.7 75.4Q71.3 76.1 70.5 76.5Q69.7 76.9 68.6 76.9L68.6 76.9L66.9 76.9L66.9 80ZM66.9 72.1L66.9 75.3L68.3 75.3Q68.9 75.3 69.3 75.1Q69.7 74.9 69.9 74.6Q70.1 74.2 70.1 73.7Q70.1 73.3 69.9 72.9Q69.7 72.5 69.3 72.3Q68.9 72.1 68.3 72.1L68.3 72.1L66.9 72.1Z "/></g><mask id="satori_om-id-1-1"><rect x="246" y="54" width="226" height="42" fill="#fff"/></mask><mask id="satori_om-id-1-1-0"><rect x="250" y="58" width="226" height="42" fill="#fff"/></mask><path x="250" y="58" width="226" height="42" fill="#000000" d="M256,58 h214 a6,6 0 0 1 6,6 v30 a6,6 0 0 1 -6,6 h-214 a6,6 0 0 1 -6,-6 v-30 a6,6 0 0 1 6,-6"/><defs><clipPath id="satori_bc-id-1-1-1"><path x="246" y="54" width="226" height="42" d="M252,54 h214 a6,6 0 0 1 6,6 v30 a6,6 0 0 1 -6,6 h-214 a6,6 0 0 1 -6,-6 v-30 a6,6 0 0 1 6,-6"/></clipPath></defs><mask id="satori_om-id-1-1-1"><rect x="248.5" y="56.5" width="221" height="37" fill="#fff"/><path width="226" height="42" fill="none" stroke="#000" stroke-width="5" d="M247.757,55.757 A6,6 0 0 1 252,54 h214 a6,6 0 0 1 6,6 v30 a6,6 0 0 1 -6,6 h-214 a6,6 0 0 1 -6,-6 v-30 A6,6 0 0 1 247.757,55.757"/></mask><path x="246" y="54" width="226" height="42" fill="#FF4B4B" d="M252,54 h214 a6,6 0 0 1 6,6 v30 a6,6 0 0 1 -6,6 h-214 a6,6 0 0 1 -6,-6 v-30 a6,6 0 0 1 6,-6"/><path width="226" height="42" clip-path="url(#satori_bc-id-1-1-1)" fill="none" stroke="#000000" stroke-width="5" d="M247.757,55.757 A6,6 0 0 1 252,54 h214 a6,6 0 0 1 6,6 v30 a6,6 0 0 1 -6,6 h-214 a6,6 0 0 1 -6,-6 v-30 A6,6 0 0 1 247.757,55.757"/><clipPath id="satori_cp-id-1-1-1-0"><rect x="264" y="65" width="20" height="20"/></clipPath><mask id="satori_om-id-1-1-1-0"><rect x="264" y="65" width="20" height="20" fill="#fff"/></mask><svg x="264" y="65" width="20" height="20" preserveAspectRatio="none" clip-path="url(#satori_cp-id-1-1-1-0)" mask="url(#satori_om-id-1-1-1-0)"><path d="M2.5 10.5l5.5-3.2 5.5 3.2v6.3l-5.5 3.2-5.5-3.2v-6.3zm5.5 1.5L4.5 10v4.7l3.5 2 3.5-2V10L8 12z" fill="#000000"></path></svg><mask id="satori_om-id-1-1-1-0-0"><rect x="264" y="65" width="0" height="20" fill="#fff"/></mask><mask id="satori_om-id-1-1-1-1"><rect x="292" y="67" width="47" height="16" fill="#fff"/></mask><g  ><path fill="#000000" d="M298.9 80L292.9 80L292.9 70.5L294.8 70.5L294.8 78.4L298.9 78.4L298.9 80ZM302.1 80.1L302.1 80.1Q301.5 80.1 300.9 79.9Q300.4 79.7 300.1 79.2Q299.8 78.7 299.8 78.0L299.8 78.0Q299.8 77.4 300.0 77.0Q300.2 76.6 300.6 76.4Q301.0 76.1 301.5 76.0Q301.9 75.9 302.5 75.8L302.5 75.8Q303.1 75.8 303.5 75.7Q303.8 75.7 304.0 75.5Q304.2 75.4 304.2 75.2L304.2 75.2L304.2 75.2Q304.2 74.9 304.1 74.7Q303.9 74.4 303.7 74.3Q303.4 74.2 303.1 74.2L303.1 74.2Q302.7 74.2 302.4 74.3Q302.2 74.4 302.0 74.6Q301.8 74.8 301.7 75.0L301.7 75.0L300.0 74.8Q300.2 74.1 300.6 73.7Q301.0 73.3 301.7 73.0Q302.3 72.8 303.1 72.8L303.1 72.8Q303.6 72.8 304.2 73.0Q304.7 73.1 305.2 73.4Q305.6 73.7 305.8 74.1Q306.1 74.6 306.1 75.2L306.1 75.2L306.1 80L304.3 80L304.3 79.0L304.2 79.0Q304.0 79.3 303.8 79.6Q303.5 79.8 303.1 80.0Q302.7 80.1 302.1 80.1ZM302.7 78.8L302.7 78.8Q303.1 78.8 303.5 78.6Q303.8 78.4 304.0 78.1Q304.2 77.8 304.2 77.5L304.2 77.5L304.2 76.7Q304.1 76.8 303.9 76.8Q303.8 76.9 303.6 76.9Q303.3 76.9 303.1 77.0Q302.9 77.0 302.8 77.0L302.8 77.0Q302.4 77.1 302.2 77.2Q301.9 77.3 301.8 77.5Q301.6 77.7 301.6 78.0L301.6 78.0Q301.6 78.2 301.8 78.4Q301.9 78.6 302.1 78.7Q302.4 78.8 302.7 78.8ZM309.6 80L307.7 80L307.7 72.9L309.6 72.9L309.6 74.1L309.6 74.1Q309.8 73.5 310.3 73.1Q310.7 72.8 311.3 72.8L311.3 72.8Q311.5 72.8 311.7 72.8Q311.8 72.8 312.0 72.9L312.0 72.9L312.0 74.6Q311.8 74.5 311.6 74.5Q311.3 74.5 311.1 74.5L311.1 74.5Q310.7 74.5 310.4 74.7Q310.0 74.9 309.8 75.2Q309.6 75.5 309.6 76.0L309.6 76.0L309.6 80ZM315.0 80.1L315.0 80.1Q314.3 80.1 313.8 79.9Q313.2 79.7 312.9 79.2Q312.6 78.7 312.6 78.0L312.6 78.0Q312.6 77.4 312.8 77.0Q313.1 76.6 313.4 76.4Q313.8 76.1 314.3 76.0Q314.8 75.9 315.3 75.8L315.3 75.8Q315.9 75.8 316.3 75.7Q316.7 75.7 316.8 75.5Q317.0 75.4 317.0 75.2L317.0 75.2L317.0 75.2Q317.0 74.9 316.9 74.7Q316.8 74.4 316.5 74.3Q316.3 74.2 315.9 74.2L315.9 74.2Q315.5 74.2 315.3 74.3Q315.0 74.4 314.8 74.6Q314.7 74.8 314.6 75.0L314.6 75.0L312.8 74.8Q313.0 74.1 313.4 73.7Q313.9 73.3 314.5 73.0Q315.1 72.8 315.9 72.8L315.9 72.8Q316.5 72.8 317.0 73.0Q317.6 73.1 318.0 73.4Q318.4 73.7 318.7 74.1Q318.9 74.6 318.9 75.2L318.9 75.2L318.9 80L317.1 80L317.1 79.0L317.1 79.0Q316.9 79.3 316.6 79.6Q316.3 79.8 315.9 80.0Q315.5 80.1 315.0 80.1ZM315.5 78.8L315.5 78.8Q316.0 78.8 316.3 78.6Q316.7 78.4 316.8 78.1Q317.0 77.8 317.0 77.5L317.0 77.5L317.0 76.7Q317.0 76.8 316.8 76.8Q316.6 76.9 316.4 76.9Q316.2 76.9 316.0 77.0Q315.8 77.0 315.6 77.0L315.6 77.0Q315.3 77.1 315.0 77.2Q314.7 77.3 314.6 77.5Q314.5 77.7 314.5 78.0L314.5 78.0Q314.5 78.2 314.6 78.4Q314.7 78.6 315.0 78.7Q315.2 78.8 315.5 78.8ZM324.7 80L322.6 80L319.9 72.9L322.0 72.9L323.2 76.6Q323.4 77.3 323.5 78.0L323.5 78.0Q323.6 78.3 323.7 78.5L323.7 78.5Q323.7 78.3 323.8 78.0L323.8 78.0Q323.9 77.3 324.2 76.6L324.2 76.6L325.3 72.9L327.3 72.9L324.7 80ZM331.6 80.1L331.6 80.1Q330.5 80.1 329.7 79.7Q328.9 79.3 328.5 78.4Q328.0 77.6 328.0 76.5L328.0 76.5Q328.0 75.4 328.5 74.6Q328.9 73.7 329.7 73.3Q330.4 72.8 331.5 72.8L331.5 72.8Q332.2 72.8 332.8 73.0Q333.4 73.3 333.8 73.7Q334.3 74.2 334.5 74.8Q334.8 75.5 334.8 76.4L334.8 76.4L334.8 76.9L329.9 76.9Q330.0 77.5 330.1 77.9L330.1 77.9Q330.3 78.3 330.7 78.5Q331.1 78.7 331.6 78.7L331.6 78.7Q331.9 78.7 332.2 78.6Q332.5 78.5 332.7 78.3Q332.9 78.1 333.0 77.9L333.0 77.9L334.7 78.2Q334.5 78.8 334.1 79.2Q333.7 79.7 333.0 79.9Q332.4 80.1 331.6 80.1ZM329.9 75.8L329.9 75.8L333.0 75.8Q332.9 75.4 332.8 75.1L332.8 75.1Q332.6 74.7 332.3 74.5Q332.0 74.2 331.5 74.2L331.5 74.2Q331.0 74.2 330.6 74.5Q330.3 74.7 330.1 75.1L330.1 75.1Q330.0 75.4 329.9 75.8ZM336.1 70.5L338.0 70.5L338.0 80L336.1 80L336.1 70.5Z "/></g><mask id="satori_om-id-1-2"><rect x="492" y="54" width="226" height="42" fill="#fff"/></mask><mask id="satori_om-id-1-2-0"><rect x="496" y="58" width="226" height="42" fill="#fff"/></mask><path x="496" y="58" width="226" height="42" fill="#000000" d="M502,58 h214 a6,6 0 0 1 6,6 v30 a6,6 0 0 1 -6,6 h-214 a6,6 0 0 1 -6,-6 v-30 a6,6 0 0 1 6,-6"/><defs><clipPath id="satori_bc-id-1-2-1"><path x="492" y="54" width="226" height="42" d="M498,54 h214 a6,6 0 0 1 6,6 v30 a6,6 0 0 1 -6,6 h-214 a6,6 0 0 1 -6,-6 v-30 a6,6 0 0 1 6,-6"/></clipPath></defs><mask id="satori_om-id-1-2-1"><rect x="494.5" y="56.5" width="221" height="37" fill="#fff"/><path width="226" height="42" fill="none" stroke="#000" stroke-width="5" d="M493.757,55.757 A6,6 0 0 1 498,54 h214 a6,6 0 0 1 6,6 v30 a6,6 0 0 1 -6,6 h-214 a6,6 0 0 1 -6,-6 v-30 A6,6 0 0 1 493.757,55.757"/></mask><path x="492" y="54" width="226" height="42" fill="#00C4FF" d="M498,54 h214 a6,6 0 0 1 6,6 v30 a6,6 0 0 1 -6,6 h-214 a6,6 0 0 1 -6,-6 v-30 a6,6 0 0 1 6,-6"/><path width="226" height="42" clip-path="url(#satori_bc-id-1-2-1)" fill="none" stroke="#000000" stroke-width="5" d="M493.757,55.757 A6,6 0 0 1 498,54 h214 a6,6 0 0 1 6,6 v30 a6,6 0 0 1 -6,6 h-214 a6,6 0 0 1 -6,-6 v-30 A6,6 0 0 1 493.757,55.757"/><clipPath id="satori_cp-id-1-2-1-0"><rect x="510" y="65" width="20" height="20"/></clipPath><mask id="satori_om-id-1-2-1-0"><rect x="510" y="65" width="20" height="20" fill="#fff"/></mask><svg x="510" y="65" width="20" height="20" preserveAspectRatio="none" clip-path="url(#satori_cp-id-1-2-1-0)" mask="url(#satori_om-id-1-2-1-0)"><path d="M2.5 2.5h15v15h-15v-15zm4 4v7.5h2.5v-2.5h1.5c1.2 0 2-1 2-2.5s-.8-2.5-2-2.5H6.5zm2.5 2v1.5h1c.4 0 .7-.3.7-.7s-.3-.8-.7-.8h-1zm4.5 1.7c0 1.2.6 1.8 1.8 1.8.6 0 1-.3 1-.3v-1.2s-.3.2-.6.2c-.4 0-.6-.3-.6-.8v-2h1.2v-1.2h-1.2V7.5h-1.2v1.5h-.6v1.2h.6v2z" fill="#000000"></path></svg><mask id="satori_om-id-1-2-1-0-0"><rect x="510" y="65" width="0" height="20" fill="#fff"/></mask><mask id="satori_om-id-1-2-1-1"><rect x="538" y="67" width="69" height="16" fill="#fff"/></mask><g  ><path fill="#000000" d="M540.8 80L538.9 80L538.9 70.5L542.5 70.5Q543.6 70.5 544.4 71.0Q545.1 71.4 545.5 72.1Q545.9 72.8 545.9 73.7L545.9 73.7Q545.9 74.7 545.5 75.4Q545.1 76.1 544.4 76.5Q543.6 76.9 542.5 76.9L542.5 76.9L540.8 76.9L540.8 80ZM540.8 72.1L540.8 75.3L542.2 75.3Q542.8 75.3 543.2 75.1Q543.6 74.9 543.7 74.6Q543.9 74.2 543.9 73.7Q543.9 73.3 543.7 72.9Q543.6 72.5 543.2 72.3Q542.8 72.1 542.2 72.1L542.2 72.1L540.8 72.1ZM549.1 75.9L549.1 75.9L549.1 80L547.2 80L547.2 70.5L549.1 70.5L549.1 74.3Q549.4 73.7 549.8 73.3L549.8 73.3Q550.4 72.8 551.3 72.8L551.3 72.8Q552.0 72.8 552.6 73.1Q553.1 73.5 553.4 74.1Q553.7 74.7 553.7 75.5L553.7 75.5L553.7 80L551.8 80L551.8 75.8Q551.8 75.2 551.5 74.8Q551.1 74.4 550.5 74.4L550.5 74.4Q550.1 74.4 549.8 74.6Q549.5 74.8 549.3 75.1Q549.1 75.4 549.1 75.9ZM558.5 80.1L558.5 80.1Q557.4 80.1 556.7 79.7Q555.9 79.2 555.5 78.4Q555.0 77.6 555.0 76.5L555.0 76.5Q555.0 75.4 555.5 74.6Q555.9 73.7 556.7 73.3Q557.4 72.8 558.5 72.8L558.5 72.8Q559.6 72.8 560.4 73.3Q561.1 73.7 561.6 74.6Q562.0 75.4 562.0 76.5L562.0 76.5Q562.0 77.6 561.6 78.4Q561.1 79.2 560.4 79.7Q559.6 80.1 558.5 80.1ZM558.5 78.6L558.5 78.6Q559.0 78.6 559.4 78.4Q559.7 78.1 559.9 77.6Q560.0 77.1 560.0 76.5L560.0 76.5Q560.0 75.8 559.9 75.4Q559.7 74.9 559.4 74.6Q559.0 74.3 558.5 74.3L558.5 74.3Q558.0 74.3 557.7 74.6Q557.3 74.9 557.1 75.4Q557.0 75.8 557.0 76.5L557.0 76.5Q557.0 77.1 557.1 77.6Q557.3 78.1 557.7 78.4Q558.0 78.6 558.5 78.6ZM565.5 72.9L566.8 72.9L566.8 74.4L565.5 74.4L565.5 77.9Q565.5 78.3 565.6 78.4Q565.8 78.6 566.1 78.6L566.1 78.6Q566.3 78.6 566.5 78.6Q566.6 78.5 566.7 78.5L566.7 78.5L567.0 79.9Q566.7 80.0 566.4 80.1Q566.1 80.1 565.8 80.1L565.8 80.1Q564.7 80.1 564.2 79.6Q563.6 79.1 563.6 78.1L563.6 78.1L563.6 74.4L562.6 74.4L562.6 72.9L563.6 72.9L563.6 71.2L565.5 71.2L565.5 72.9ZM571.2 80.1L571.2 80.1Q570.2 80.1 569.4 79.7Q568.6 79.2 568.2 78.4Q567.8 77.6 567.8 76.5L567.8 76.5Q567.8 75.4 568.2 74.6Q568.6 73.7 569.4 73.3Q570.2 72.8 571.2 72.8L571.2 72.8Q572.3 72.8 573.1 73.3Q573.9 73.7 574.3 74.6Q574.7 75.4 574.7 76.5L574.7 76.5Q574.7 77.6 574.3 78.4Q573.9 79.2 573.1 79.7Q572.3 80.1 571.2 80.1ZM571.2 78.6L571.2 78.6Q571.7 78.6 572.1 78.4Q572.4 78.1 572.6 77.6Q572.8 77.1 572.8 76.5L572.8 76.5Q572.8 75.8 572.6 75.4Q572.4 74.9 572.1 74.6Q571.7 74.3 571.2 74.3L571.2 74.3Q570.7 74.3 570.4 74.6Q570.0 74.9 569.9 75.4Q569.7 75.8 569.7 76.5L569.7 76.5Q569.7 77.1 569.9 77.6Q570.0 78.1 570.4 78.4Q570.7 78.6 571.2 78.6ZM578.9 80.1L578.9 80.1Q578.0 80.1 577.3 79.9Q576.7 79.7 576.3 79.2Q575.8 78.7 575.7 78.1L575.7 78.1L577.5 77.8Q577.6 78.2 578.0 78.5Q578.3 78.7 578.9 78.7L578.9 78.7Q579.5 78.7 579.8 78.5Q580.1 78.3 580.1 78.0L580.1 78.0Q580.1 77.7 579.9 77.6Q579.6 77.4 579.2 77.3L579.2 77.3L577.9 77.0Q576.9 76.8 576.4 76.3Q575.9 75.8 575.9 75.0L575.9 75.0Q575.9 74.3 576.3 73.8Q576.7 73.3 577.3 73.1Q578.0 72.8 578.9 72.8L578.9 72.8Q579.7 72.8 580.3 73.0Q581.0 73.3 581.3 73.7Q581.7 74.1 581.8 74.7L581.8 74.7L580.2 75.0Q580.0 74.6 579.7 74.4Q579.4 74.2 578.9 74.2L578.9 74.2Q578.4 74.2 578.1 74.4Q577.8 74.6 577.8 74.9L577.8 74.9Q577.8 75.2 578.0 75.4Q578.2 75.5 578.7 75.6L578.7 75.6L580.0 75.9Q581.0 76.1 581.5 76.6Q582.0 77.0 582.0 77.8L582.0 77.8Q582.0 78.5 581.6 79.0Q581.2 79.6 580.5 79.8Q579.8 80.1 578.9 80.1ZM585.2 75.9L585.2 75.9L585.2 80L583.3 80L583.3 70.5L585.2 70.5L585.2 74.3Q585.4 73.7 585.9 73.3L585.9 73.3Q586.4 72.8 587.3 72.8L587.3 72.8Q588.1 72.8 588.6 73.1Q589.2 73.5 589.5 74.1Q589.8 74.7 589.8 75.5L589.8 75.5L589.8 80L587.9 80L587.9 75.8Q587.9 75.2 587.5 74.8Q587.2 74.4 586.6 74.4L586.6 74.4Q586.2 74.4 585.9 74.6Q585.6 74.8 585.4 75.1Q585.2 75.4 585.2 75.9ZM594.6 80.1L594.6 80.1Q593.5 80.1 592.7 79.7Q592.0 79.2 591.5 78.4Q591.1 77.6 591.1 76.5L591.1 76.5Q591.1 75.4 591.5 74.6Q592.0 73.7 592.7 73.3Q593.5 72.8 594.6 72.8L594.6 72.8Q595.7 72.8 596.4 73.3Q597.2 73.7 597.6 74.6Q598.1 75.4 598.1 76.5L598.1 76.5Q598.1 77.6 597.6 78.4Q597.2 79.2 596.4 79.7Q595.7 80.1 594.6 80.1ZM594.6 78.6L594.6 78.6Q595.1 78.6 595.4 78.4Q595.8 78.1 595.9 77.6Q596.1 77.1 596.1 76.5L596.1 76.5Q596.1 75.8 595.9 75.4Q595.8 74.9 595.4 74.6Q595.1 74.3 594.6 74.3L594.6 74.3Q594.1 74.3 593.7 74.6Q593.4 74.9 593.2 75.4Q593.1 75.8 593.1 76.5L593.1 76.5Q593.1 77.1 593.2 77.6Q593.4 78.1 593.7 78.4Q594.1 78.6 594.6 78.6ZM601.3 82.7L599.4 82.7L599.4 72.9L601.3 72.9L601.3 74.1L601.3 74.1Q601.5 73.8 601.7 73.5Q602.0 73.2 602.4 73.0Q602.8 72.8 603.4 72.8L603.4 72.8Q604.2 72.8 604.8 73.2Q605.5 73.6 605.9 74.4Q606.2 75.3 606.2 76.5L606.2 76.5Q606.2 77.6 605.9 78.5Q605.5 79.3 604.8 79.7Q604.2 80.1 603.4 80.1L603.4 80.1Q602.8 80.1 602.4 79.9Q602.0 79.7 601.7 79.4Q601.5 79.1 601.3 78.9L601.3 78.9L601.3 78.9L601.3 82.7ZM602.8 78.6L602.8 78.6Q603.3 78.6 603.6 78.3Q603.9 78.0 604.1 77.6Q604.3 77.1 604.3 76.5L604.3 76.5Q604.3 75.8 604.1 75.4Q603.9 74.9 603.6 74.6Q603.3 74.3 602.8 74.3L602.8 74.3Q602.3 74.3 601.9 74.6Q601.6 74.9 601.4 75.3Q601.2 75.8 601.2 76.5L601.2 76.5Q601.2 77.1 601.4 77.6Q601.6 78.1 601.9 78.3Q602.3 78.6 602.8 78.6Z "/></g></svg>